# xmcd
#
# Track frame offsets:
#	150
#	13607
#	29944
#	46949
#	67346
#	83217
#	98038
#	114418
#	131611
#	151902
#	167663
#	184610
#	209129
#	229459
#	246206
#	258791
#	281772
#	298723
#	313454
#	329948
#
# Disc length: 4604
#
# Revision: 1
# Processed by: cddbd v1.5.1PL0 Copyright (c) Steve Scherf et al.
# Submitted via: EZCDDA 4.3.3.2
# Normalized: r0:DSETVAR1,TDELIM( - )
#
DISCID=3b11fa14
DTITLE=Various Artist - Summer Hits 2001
DYEAR=1900
DGENRE=
TTITLE0=Antique - Die For You (English Version)
TTITLE1=Barcode Brothers - Dooh Dooh
TTITLE2=Bon Jovi - One Wild Night
TTITLE3=Brandy and Ray J - Another Day In Paradise
TTITLE4=Chocolate Puma - I Wanna Be U
TTITLE5=Da Muttz - Wassuup
TTITLE6=DJ Daddy - Daddy DJ
TTITLE7=DJ Encore - I See Right Through To You
TTITLE8=DJ Jean - Lift Me Up (Barthezz Remix)
TTITLE9=DJ Quicksilver - Ameno
TTITLE10=Faithless - We Come One (Radio Edit)
TTITLE11=Fatboy Slim - Star 69
TTITLE12=Fragma - You Are Alive
TTITLE13=Francesca St. Martin - Last Night (Remix)
TTITLE14=Norman Bass - How U Like Bass
TTITLE15=Notis - Opa Opa
TTITLE16=Public Domain feat. Chuck D - Rock Da Funky Beats
TTITLE17=R. Kelly feat. Jay Z - Fiesta
TTITLE18=Technotronic - The G Train
TTITLE19=Touch and Go - Tango In Harlem
EXTD=
EXTT0=
EXTT1=
EXTT2=
EXTT3=
EXTT4=
EXTT5=
EXTT6=
EXTT7=
EXTT8=
EXTT9=
EXTT10=
EXTT11=
EXTT12=
EXTT13=
EXTT14=
EXTT15=
EXTT16=
EXTT17=
EXTT18=
EXTT19=
PLAYORDER=
